<svg xmlns="http://www.w3.org/2000/svg" xmlns:xlink="http://www.w3.org/1999/xlink" width="75" height="54" viewBox="0 0 75 54">
  <defs>
    <polygon id="watford-|-stake-logo-footer-a" points="0 0 7.043 0 7.043 7 0 7"/>
    <polygon id="watford-|-stake-logo-footer-c" points="0 0 7.043 0 7.043 7 0 7"/>
  </defs>
  <g fill="none" fill-rule="evenodd">
    <g transform="translate(21)">
      <polygon fill="#ED2127" points="16.5 37 33 20.544 27.57 8.12 30.638 8.12 30.638 0 2.361 0 2.361 8.12 5.43 8.12 0 20.544"/>
      <polygon fill="#FBEE23" points="3.908 6.577 29.092 6.577 29.092 1.543 3.908 1.543"/>
      <path fill="#000" d="M16.5004673,8.11985835 L7.11866546,8.11985835 C5.68067261,11.4099545 2.39678828,18.9227936 1.83961611,20.1968603 C3.10390157,21.4588096 14.6855521,33.0093003 16.5004673,34.8193325 L16.5004673,8.11985835 Z"/>
      <path fill="#FBEE23" d="M25.8814013,8.11985835 L16.4995994,8.11985835 L16.4995994,34.8193325 C18.3146482,33.0091671 29.895097,21.4588096 31.1604506,20.1968603 C30.6032785,18.9227936 27.3192606,11.4099545 25.8814013,8.11985835"/>
      <polygon fill="#000" points="7.496 3.405 8.045 5.939 8.761 5.939 9.608 2.357 8.954 2.357 8.409 5.111 7.863 2.357 7.175 2.357 6.621 5.111 6.066 2.357 5.402 2.357 6.249 5.939 6.993 5.939"/>
      <path fill="#000" d="M12.0289237,5.93931074 L12.7164098,5.93931074 L11.5626776,2.81020395 L10.8806657,2.81020395 L9.72693349,5.93931074 L10.4144196,5.93931074 L10.6507471,5.21053073 L11.7932638,5.21053073 L12.0289237,5.93931074 Z M10.8273919,4.66697509 L11.2222057,3.44990049 L11.616886,4.66697509 L10.8273919,4.66697509 Z"/>
      <polygon fill="#000" points="12.728 2.811 12.728 3.355 13.587 3.355 13.587 5.939 14.245 5.939 14.245 3.355 15.087 3.355 15.217 2.811"/>
      <polygon fill="#000" points="15.775 2.811 15.775 5.939 16.411 5.939 16.411 4.583 17.362 4.583 17.362 4.04 16.411 4.04 16.411 3.355 17.515 3.355 17.645 2.811"/>
      <path fill="#000" d="M19.5095842 2.77077553C18.4413037 2.77077553 17.9937501 3.49489497 17.9937501 4.3891918 17.9937501 5.28242335 18.4413037 6.00747491 19.5095842 6.00747491 20.5778647 6.00747491 21.0262194 5.28242335 21.0262194 4.3891918 21.0254183 3.49582708 20.5778647 2.77077553 19.5095842 2.77077553M19.5095842 5.52290877C18.8839171 5.52290877 18.7291693 5.01503979 18.7291693 4.3891918 18.7291693 3.76321065 18.8839171 3.25534166 19.5095842 3.25534166 20.1352513 3.25534166 20.2899991 3.76321065 20.2899991 4.3891918 20.2899991 5.01503979 20.1343166 5.52290877 19.5095842 5.52290877M23.322495 4.61739994L23.322495 4.58371068C23.5327864 4.58371068 24.0608516 4.38530355 24.0608516 3.71657831 24.0608516 3.04865203 23.5496098 2.81096296 22.9643987 2.81096296L21.7758182 2.81096296 21.7758182 5.93913763 22.4239164 5.93913763 22.4239164 4.63417799 22.4783919 4.63417799C22.6968279 4.63417799 23.4642915 5.93913763 23.4642915 5.93913763L24.2822251 5.93913763 23.322495 4.61739994zM22.9192695 4.16931941L22.424851 4.16931941 22.424851 3.35451859 22.9192695 3.35451859C23.0983177 3.35451859 23.3685589 3.38261517 23.3685589 3.73615271 23.3685589 4.08969024 23.0983177 4.16931941 22.9192695 4.16931941L22.9192695 4.16931941zM26.0707838 2.8110828L24.9564394 2.8110828 24.9564394 5.93925748 26.0707838 5.93925748C27.0705693 5.93925748 27.4871466 5.2713312 27.4871466 4.38369232 27.4871466 3.49592029 27.0708364 2.8110828 26.0707838 2.8110828M26.0925472 5.39570184L25.5962595 5.39570184 25.5962595 3.35450528 26.0925472 3.35450528C26.5203401 3.35450528 26.7669512 3.76716547 26.7669512 4.38262705 26.7678832 4.9991539 26.5210077 5.39570184 26.0925472 5.39570184M11.1914564 10.5839284C11.1914564 10.6794035 11.2017374 10.739192 11.2102825 10.7935209 11.2196288 10.8514451 11.2299097 10.9104346 11.2299097 11.0619697 11.2299097 11.539079 11.1202912 11.7626532 11.0441857 11.7626532 11.0281635 11.7626532 11.02082 11.7617211 11.0150787 11.7607889 11.006667 11.7505357 10.9909118 11.7300292 10.9784946 11.7112537 10.8491153 11.5269615 10.6718029 11.3314839 10.1952759 11.3314839 9.75266248 11.3314839 9.45611818 11.6448073 9.45611818 12.1107312 9.45611818 12.7945034 9.62969206 13.3473802 9.76841765 13.7917323 9.84999737 14.0499278 9.9192934 14.2725699 9.9192934 14.4213087 9.9192934 14.5400867 9.86214754 14.6570004 9.82756628 14.6823006 9.65385888 14.6795043 9.59671302 14.6234443 9.47387612 14.5036011 9.30884741 14.3408806 9.08186618 14.1173064 8.57342823 14.1173064 8.35686143 14.1173064 7.85483235 14.1912097 7.85483235 14.8787104 7.85483235 15.1780521 7.95991131 15.4343835 8.06031713 15.6813937 8.16819997 15.9442499 8.27875318 16.2156282 8.27875318 16.5720952 8.27875318 16.6001918 8.2759493 16.8526616 8.19330142 16.8526616 7.86791715 16.8526616 7.74494673 16.6515913 7.55735342 16.2971216 7.39312583 15.9873934 7.18964383 15.6038951 6.71792343 15.6038951 5.94311632 15.6038951 5.94311632 16.7582517 5.94311632 17.1923505 5.94311632 19.6470063 8.27875318 20.5366425 9.84906274 20.5366425 10.1474763 20.5366425 10.3217178 20.5113423 10.490752 20.4871073 10.6652605 20.4618071 10.8293546 20.4375721 11.1539378 20.4375721 12.1069919 20.4375721 12.8281246 20.6274571 13.2625934 20.9867204 13.023462 20.8959059 12.7381333 20.8359843 12.3987296 20.8359843 11.5789268 20.8359843 11.2759736 21.030663 10.988108 21.2654225 10.8802251 21.3542397 10.8005147 21.4188219 10.6541785 21.4609002L9.48923073 21.7929991 10.6711354 22.0567873C11.1644857 22.1671763 11.4373973 22.553471 11.7272657 22.9624027 12.0359601 23.3982326 12.3848436 23.8931851 13.0265329 23.8931851 13.0864827 23.8931851 13.1428274 23.8883914 13.1970359 23.8800024 13.1416258 24.1821405 13.095829 24.5648399 13.095829 25.0071946 13.095829 25.6460921 13.252446 25.8949666 13.4588654 26.1540943L13.5572685 26.2849897C13.6491291 26.4188147 13.746731 26.548778 13.8424637 26.6742139 14.1801317 27.1194981 14.4999082 27.5413463 14.4999082 28.1185912 14.4999082 28.426322 14.5149957 28.6750633 14.5290152 28.9146166 14.5441027 29.1549688 14.5562529 29.3814725 14.5562529 29.6657673 14.5562529 30.5170537 15.1461371 30.780842 15.4632432 30.9221239 15.4951541 30.9370377 15.5336074 30.9539489 15.563649 30.9689959 15.6245334 31.2599486 15.912666 31.3552906 16.0926488 31.4132148L16.1554024 31.4338545 16.2210935 31.4599536C16.3129541 31.4992356 16.4376603 31.5535645 16.6646415 31.5535645 17.2545257 31.5535645 17.5135513 31.1165362 17.5669587 30.7527454 17.5772396 30.7480848 17.5875205 30.7443564 17.5970003 30.7396958 17.856827 30.6245132 18.397977 30.3869572 18.397977 29.6283496 18.397977 29.2307364 18.3483082 28.9304625 18.3041136 28.665609 18.2723362 28.4701313 18.2432292 28.3007529 18.2432292 28.1333718 18.2432292 27.6525342 18.4411034 27.4083203 18.7121457 27.0715608 19.0778525 26.6169555 19.5347524 26.0528933 19.5347524 24.781623 19.5347524 24.3316782 19.5093839 23.9873286 19.4757373 23.7272688 19.54984 23.74418 19.626613 23.7562975 19.7065905 23.7562975 20.5506937 23.7562975 20.8424313 23.2510917 21.0544585 22.832972 21.4503405 22.0498631 22.2156678 22.095803 22.2156678 22.095803 22.2156678 22.095803 21.6097614 21.049971 20.1661608 21.049971 19.7262177 21.049971 19.3884163 21.1378561 19.1332627 21.2529056 19.2515599 20.9142819 19.4533062 20.763812 19.6192695 20.6748617 20.0179554 20.4643371 20.6097088 20.4455617 21.134169 20.4455617 21.4559482 20.4455617 21.6837306 20.4689977 21.9052376 20.4924337 22.1133927 20.5138723 22.3282238 20.5363762 22.6050073 20.5363762 24.7334237 20.5363762 25.2923316 19.8637893 25.8834174 19.1519206 26.3861141 18.5476443 26.7193759 17.9610783 26.7193759 17.0535987 26.7193759 16.4437298 26.5429982 15.7925816 26.0457758 15.7925816 25.6162472 15.7925816 25.4314577 16.192858 25.2832523 16.5147036 25.1059399 16.8983352 25.0017956 17.0591914 24.8188755 17.0591914 24.579744 17.0591914 24.3854748 16.8244318 24.3854748 16.5362754 24.3854748 16.2696908 24.5627872 15.9329313 24.7344918 15.6073572 24.9296957 15.2350442 25.1331777 14.8506138 25.1331777 14.4688465 25.1331777 14.2536613 25.0441209 14.061779 24.8817626 13.9290193 24.746642 13.8176983 24.5730681 13.7559124 24.3921507 13.7559124 24.0141602 13.7559124 23.7129428 14.0692359 23.4214722 14.3724393 23.2357481 14.5660527 22.9824638 14.829042 22.8285171 14.8383632 22.7976744 14.8111987 22.7497413 14.7046714 22.7497413 14.6194495 22.7497413 14.3547291 22.867905 13.9636407 22.9833984 13.5866672 23.1073035 13.1806649 23.2223963 12.7962345 23.2223963 12.4885037 23.2223963 11.8232406 22.8339913 11.5268283 22.4486573 11.5268283 22.0977711 11.5268283 21.8699887 11.6906141 21.686935 11.8224416 21.5499452 11.9207131 21.4618231 11.9778384 21.3539402 11.9862274 21.3512698 11.9815668 21.3494006 11.9778384 21.3481989 11.9730446 21.3481989 11.9590629 21.3491335 11.6550606 21.3491335 11.6550606 21.3491335 11.5586534 21.3500682 11.4651756 21.3500682 11.3754264 21.3500682 10.6708813 21.3209612 10.192041 21.047115 9.91799952 20.9138637 9.78417458 20.7396222 9.71679605 20.5293307 9.71679605 19.5622572 9.71679605 19.1280554 10.9909959 19.1280554 12.2529452 19.1280554 12.8385791 19.1523558 13.3559024 19.175855 13.8555155 19.1984196 14.3326247 19.2189815 14.7816374 19.2189815 15.2699319 19.2189815 16.4410666 18.9787819 17.3999457 18.7732971 17.901423 18.7066715 17.3428204 18.6045299 16.5019204 17.9525597 16.5019204 17.4123444 16.5019204 17.285769 17.1903532 17.1403675 17.9874438 17.0091189 18.7031742 16.8279345 19.6834919 16.3822501 19.6834919 16.0081317 19.6834919 15.9002488 19.0015839 15.7961045 18.1099502 15.6947641 17.2362931 15.5794042 16.2465211 14.7999239 16.2465211 13.9518152 16.2465211 13.8966722 17.3429535 13.8610228 18.0680051 13.8563496 18.1588196 13.8506083 18.2662791 13.8421967 18.3701432 13.6349761 17.9650731 13.3852968 17.2681181 13.3852968 16.6282884 13.3852968 15.8161508 13.4359003 15.1801827 13.4865037 14.5644548 13.5344368 13.9750924 13.5841056 13.3652235 13.5841056 12.624326 13.5841056 10.9909959 13.1768746 10.5494402 12.8178437 10.160216L12.7924752 10.1330515C12.5513411 9.87205961 12.3243598 9.62518255 11.9670647 9.62518255 11.4595613 9.62691362 11.1914564 10.1086834 11.1914564 10.5839284"/>
      <path fill="#ED2127" d="M26.0510898,16.1022565 C25.5390468,16.1022565 25.5736281,17.3679342 24.8231213,17.3679342 C24.4086803,17.3679342 24.0802251,16.9974855 24.0802251,16.5363553 C24.0802251,15.8637685 24.8268599,15.0919781 24.8268599,14.4689264 C24.8268599,14.2023418 24.6017479,14.0647884 24.3945274,14.0647884 C23.890629,14.0647884 23.3785861,15.1500354 22.8223485,15.1500354 C22.5606525,15.1500354 22.4424888,14.8094144 22.4424888,14.6204615 C22.4424888,14.0161853 22.9160784,13.0301418 22.9160784,12.4895157 C22.9160784,12.0554169 22.7182042,11.8355711 22.451568,11.8355711 C21.9571495,11.8355711 21.7922543,12.2986986 21.3278774,12.2986986 C21.150565,12.2986986 21.0436168,12.1049521 21.0436168,11.9807146 C21.0436168,10.7673685 21.1055693,10.0246067 20.5334431,10.0246067 C19.7924162,10.0246067 19.4424645,11.1415457 19.4424645,12.2528919 C19.4424645,13.3811493 19.5333905,14.2538744 19.5333905,15.2706776 C19.5333905,16.8451514 19.1525961,18.1650249 18.8205359,18.4494528 C18.8205359,18.4494528 18.7380216,19.3661204 19.101058,19.3661204 C19.8344744,19.3661204 21.0258589,17.3174669 22.5040408,17.3174669 C23.170965,17.3174669 23.2168953,17.7262655 23.2168953,17.8919154 C23.2168953,18.427881 22.4589115,18.7011236 22.4589115,19.0406794 C22.4589115,19.2147184 22.7234114,19.2296322 23.0497303,19.2296322 C24.0196078,19.2296322 24.7324624,18.6329461 24.7324624,18.6329461 C24.7324624,18.6329461 24.03563,19.4570681 22.9446514,19.4570681 C22.4662551,19.4570681 22.0957416,19.3064651 22.0957416,19.0257656 C22.0957416,18.5804814 22.9980587,18.2249465 22.9980587,17.7787302 C22.9980587,17.643041 22.8470494,17.4540882 22.505643,17.4540882 C21.3003726,17.4540882 20.0274085,19.7291122 19.0351,19.7291122 C18.8305498,19.7291122 18.5464227,19.5935562 18.5464227,19.0762329 C18.5464227,18.6346772 18.5115744,16.81053 17.9582743,16.81053 C17.2932193,16.81053 17.6123282,19.9921015 16.3871636,19.9921015 C15.0936376,19.9921015 15.8656409,16.5551308 14.8047039,16.5551308 C14.1602107,16.5551308 14.2615512,17.4859132 14.1602107,18.3232179 C14.0766282,19.0089875 13.8779529,19.6329713 13.4559013,19.6329713 C12.8987291,19.6329713 12.50485,19.377572 12.0300586,19.0846219 C11.7280401,18.8984654 11.4071954,18.7151053 11.1408263,18.5158992 C10.7084938,18.1931214 10.4709646,17.8704768 10.0443734,17.8704768 C9.81739218,17.8704768 9.56691172,17.9948475 9.56691172,18.2268107 C9.56691172,18.6804839 10.0443734,18.8563871 10.0443734,19.2473424 C10.0443734,19.4681203 9.7208584,19.6440235 9.3502114,19.6440235 C8.22465154,19.6440235 7.54851451,18.9077866 7.54851451,18.6121733 C7.54851451,18.6121733 8.11129444,19.4054023 9.4010819,19.4054023 C9.67973474,19.4054023 9.7818763,19.3436165 9.7818763,19.2071283 C9.7818763,18.9526612 9.39534061,18.7253585 9.39534061,18.2322702 C9.39534061,17.920811 9.63927868,17.6654117 9.99190069,17.6654117 C10.44119,17.6654117 10.7450778,17.9928501 11.2086536,18.3286774 C11.8754444,18.8123115 12.7431802,19.3595956 13.4082353,19.3595956 C13.6633889,19.3595956 13.8341589,19.2465434 13.8341589,18.9816899 C13.8341589,18.7300191 13.0781778,18.0397221 13.0781778,16.6270367 C13.0781778,15.0124821 13.2769867,14.1107283 13.2769867,12.6232075 C13.2769867,11.0721697 12.904604,10.7074468 12.5668025,10.3407265 C12.3135181,10.0646876 12.1747925,9.93192796 11.9702424,9.93192796 C11.6176204,9.93192796 11.498522,10.3172905 11.498522,10.5820109 C11.498522,10.7437993 11.5379099,10.7540525 11.5379099,11.0600523 C11.5379099,11.6101327 11.407596,12.0684665 11.0434914,12.0684665 C10.6175678,12.0684665 10.8390748,11.637164 10.1945816,11.637164 C9.88588711,11.637164 9.76505298,11.8579419 9.76505298,12.1077484 C9.76505298,13.1732879 10.2282282,13.9337598 10.2282282,14.4173938 C10.2282282,14.6588114 10.088568,14.9871818 9.83982327,14.9871818 C9.19733287,14.9871818 9.31082348,14.4203233 8.57353504,14.4203233 C8.2592328,14.4203233 8.16350012,14.6016861 8.16350012,14.8739965 C8.16350012,15.400641 8.58742095,15.8038469 8.58742095,16.566183 C8.58742095,16.9029425 8.47393034,17.1555454 8.19354176,17.1555454 C7.23501337,17.1555454 7.35397824,15.9057136 6.71896487,15.9057136 C6.39451523,15.9057136 6.25365335,16.3295592 6.25365335,17.1855062 C6.25365335,19.4755772 8.49742957,20.2220673 9.84997067,20.2220673 C10.4240997,20.2220673 10.4859187,20.1237959 11.1548457,20.1237959 C14.2942632,20.1237959 14.0409788,22.0406218 14.0409788,22.0406218 C14.0409788,22.0406218 13.6394891,21.137936 12.399504,21.137936 C11.1903616,21.137936 11.3217437,21.583087 10.739203,21.7506012 C11.9464761,22.0209143 12.0531573,23.5794089 13.0278414,23.5794089 C13.4632448,23.5794089 13.678877,23.2474432 13.678877,23.2474432 C13.678877,23.2474432 13.4059654,23.9489255 13.4059654,25.0032797 C13.4059654,25.7235375 13.6189272,25.8218089 13.8139976,26.1081011 C14.2296403,26.7170379 14.8101781,27.2548677 14.8101781,28.1156084 C14.9489037,28.1156084 15.0541162,27.4747134 15.1319574,27.4747134 C15.1825609,27.4747134 15.2258208,27.573917 15.2258208,27.7150657 C15.2258208,28.0434362 14.8683922,28.6216132 14.8683922,29.6627845 C14.8683922,30.2867683 15.2604021,30.4889039 15.5530744,30.6207314 C15.6242397,30.6207314 16.0342746,29.7629202 16.0342746,29.7629202 C15.7884672,30.4308465 15.8636381,30.8059558 15.8636381,30.8508304 C15.8636381,31.0285979 16.037212,31.0650835 16.2584519,31.1380547 C16.3840927,31.1802662 16.4487156,31.2419189 16.6692879,31.2419189 C17.1833337,31.2419189 17.2733251,30.7853161 17.2733251,30.6056845 C17.2733251,30.4241885 17.087601,30.0837006 17.087601,29.8798339 C17.087601,29.8798339 17.080124,29.7553301 17.1100321,29.7553301 C17.1739874,29.7553301 17.4458308,30.4681311 17.4458308,30.4681311 C17.686965,30.3614706 18.0929943,30.2060739 18.0929943,29.6252337 C18.0929943,28.9489184 17.6821583,28.0302534 17.6821583,27.6167942 C17.6821583,27.5213191 17.7158049,27.4576691 17.7506532,27.4576691 C17.8302302,27.4576691 17.9645497,27.8319794 17.9645497,27.8319794 C18.1417285,26.7973329 19.2327071,26.6990614 19.2327071,24.7795723 C19.2327071,23.5643619 19.0469831,23.1732735 19.0469831,23.1732735 C19.0469831,23.1732735 19.3706316,23.4454508 19.7129727,23.4454508 C20.8872668,23.4454508 20.6096821,22.2780446 21.5316265,21.8889535 C21.5316265,21.7729719 21.0354722,21.3557843 20.1716083,21.3557843 C19.0806297,21.3557843 18.7280077,21.9460788 18.7280077,21.9460788 C18.7280077,20.2377801 19.9278038,20.1357802 21.1377473,20.1357802 C21.7858454,20.1357802 22.0646318,20.2265948 22.6087192,20.2265948 C24.5944044,20.2265948 25.082147,19.6363003 25.6514693,18.9506638 C26.1571034,18.3415939 26.4132204,17.8168137 26.4132204,17.0515481 C26.4151944,16.6411516 26.3127858,16.1022565 26.0510898,16.1022565 M13.2323916,22.6329137 C13.2323916,22.7124097 13.486477,22.7732634 13.6337478,22.7732634 C13.6337478,22.864078 13.4556343,22.9959055 13.2895374,22.9959055 C12.6487828,22.9959055 12.9593465,22.0053346 11.6790388,21.7564602 C11.6790388,21.7564602 11.7475338,21.7264994 11.9134971,21.7264994 C12.9244982,21.7264994 13.2171705,22.5086762 13.7671326,22.5086762 C13.6067771,22.5262532 13.2323916,22.5383707 13.2323916,22.6329137 M15.4103432,26.7171711 L15.4103432,26.2260801 C15.4103432,26.0894588 15.3494588,26.0304693 15.2283577,26.0304693 L15.5473331,25.3046188 L15.5473331,25.2325797 C14.9826839,25.2325797 14.493072,25.1193944 14.493072,24.7189849 L14.3336511,24.7189849 C14.3000045,24.7189849 14.2267029,24.6806351 14.2267029,24.6123244 C14.2267029,24.5627892 14.4160319,24.3485361 14.8635855,24.3485361 C15.204992,24.3485361 15.4095421,24.4916822 15.4095421,24.4916822 C15.4095421,24.4916822 15.2162075,24.038009 14.696554,24.038009 C14.3899958,24.038009 14.3100183,24.079022 14.3100183,24.079022 C14.3100183,24.079022 14.4957424,23.840534 14.7454217,23.840534 C15.5294416,23.840534 15.7339918,24.3316249 15.7339918,25.1968931 C15.7369292,26.1128948 15.4103432,26.7171711 15.4103432,26.7171711 M20.5291705,21.9013373 C20.6566806,21.9013373 20.7278459,21.9238412 20.7278459,21.9238412 C19.9634532,22.0632589 19.9719984,22.9847202 19.3602172,22.9847202 C19.2269659,22.9847202 19.1388437,22.9249317 19.1388437,22.9249317 C19.2250966,22.7575507 19.5112265,22.7172034 19.5112265,22.491765 C19.3133522,22.491765 19.1679507,22.5085431 18.9736815,22.5479582 C18.9748832,22.4737885 19.5865308,21.9013373 20.5291705,21.9013373 M18.7760743,24.1782256 L18.7236016,24.2643796 C18.7236016,24.2643796 18.431864,24.1699697 18.1628244,24.1699697 C17.6777522,24.1699697 17.4996387,24.5020686 17.4996387,24.5020686 C17.4996387,24.5020686 17.6590596,24.4076588 17.9732284,24.4076588 C18.3898057,24.4076588 18.6927589,24.6303009 18.6927589,24.7135254 C18.6927589,24.7996793 18.5643142,24.8453529 18.460971,24.8453529 C18.460971,25.0456243 18.1880594,25.3216632 17.3654527,25.3216632 C17.3654527,25.7258012 17.6159332,25.99425 17.6159332,26.1120959 C17.4068434,26.1120959 17.3768018,26.3122341 17.3768018,26.667769 C17.3768018,26.667769 17.0890697,25.5301904 17.0890697,25.0727887 C17.0890697,24.3963403 17.3619813,23.885675 17.9415845,23.885675 C18.355892,23.8872729 18.7760743,24.1782256 18.7760743,24.1782256"/>
      <path fill="#ED2127" d="M17.4684622,24.964051 L17.4233329,25.0623224 C17.4233329,25.0623224 17.518131,25.1304999 17.7217465,25.1304999 C18.1316479,25.1304999 18.3116307,24.7993331 18.2713081,24.7600512 C18.2319202,24.7207692 18.0547413,25.0135862 17.736567,25.0135862 C17.547238,25.0135862 17.4684622,24.964051 17.4684622,24.964051"/>
      <path fill="#ED2127" d="M17.9120502 24.8508923C17.9120502 24.8817853 17.8717277 24.9080176 17.8211242 24.9080176 17.7714554 24.9080176 17.7301982 24.8827174 17.7301982 24.8508923 17.7301982 24.8199994 17.7705208 24.7937671 17.8211242 24.7937671 17.8717277 24.7937671 17.9120502 24.8199994 17.9120502 24.8508923M14.7792686 24.6993572C14.8214604 24.7311823 14.9067787 24.9453022 15.130956 24.9453022 15.294249 24.9453022 15.3166801 24.8845816 15.3674171 24.856485 15.4180205 24.8283885 15.4715614 24.8817853 15.439517 24.9285241 15.4076061 24.9763283 15.3464547 25.0361167 15.1382995 25.0361167 14.868993 25.0361167 14.7123759 24.8172031 14.6918141 24.7639394 14.654429 24.6712607 14.6928823 24.6395688 14.7792686 24.6993572"/>
      <path fill="#ED2127" d="M15.1713186,24.762954 C15.1713186,24.7919827 15.137672,24.8154187 15.0961478,24.8154187 C15.0540895,24.8154187 15.0201758,24.7919827 15.0201758,24.762954 C15.0201758,24.7348575 15.0538225,24.7114215 15.0961478,24.7114215 C15.137405,24.7114215 15.1713186,24.7348575 15.1713186,24.762954"/>
    </g>
    <g transform="translate(0 47)">
      <polygon fill="#FFF" points="5.285 .112 3.648 4.332 2.011 .112 0 .112 0 6.878 1.435 6.878 1.435 2.009 3.335 6.878 3.961 6.878 5.861 2.009 5.861 6.878 7.306 6.878 7.306 .112"/>
      <path fill="#FFF" d="M10.531151,0.111510401 L7.92419428,6.87830708 L9.50025725,6.87830708 L9.92471225,5.71163605 L12.9360484,5.71163605 L13.3602427,6.87830708 L14.926659,6.87830708 L12.3296096,0.111510401 L10.531151,0.111510401 Z M11.4303803,1.3593275 L12.5418371,4.46381895 L10.3087554,4.46381895 L11.4303803,1.3593275 Z"/>
      <polygon fill="#FFF" points="15.554 6.878 16.989 6.878 16.989 .112 15.554 .112"/>
      <polygon fill="#FFF" points="22.921 .112 22.921 4.494 19.799 .112 18.323 .112 18.323 6.878 19.758 6.878 19.758 2.333 22.971 6.878 24.356 6.878 24.356 .112"/>
      <g transform="translate(27.814)">
        <path fill="#FFF" d="M.78790112 4.8289239C1.26293614 5.326009 2.00051797 5.74194803 2.93025172 5.74194803 3.71841356 5.74194803 4.10245669 5.36658203 4.10245669 4.98126909 4.10245669 4.4739753 3.51635421 4.30147447 2.73809979 4.11876493 1.63681113 3.86511804.222134929 3.56095117.222134929 2.04927847.222134929.923180477 1.19228055.0098945849 2.77877238.0098945849 3.84981732.0098945849 4.73887848.334740613 5.40606543.953544812L4.60747472 2.00870544C4.06204482 1.50141164 3.33463115 1.26792038 2.67761235 1.26792038 2.03102241 1.26792038 1.68739115 1.55193161 1.68739115 1.95792371 1.68739115 2.41443577 2.25315734 2.55631051 3.03115103 2.73902004 4.14286856 2.99266694 5.55754477 3.3274599 5.55754477 4.8289239 5.55754477 6.06679406 4.67839103 6.99997382 2.8593354 6.99997382 1.56589481 6.99997382.636421785 6.56387916 0 5.92465756L.78790112 4.8289239zM9.48922872 1.34914497L7.96322433 1.34914497 7.96322433 3.21576627 9.48922872 3.21576627C10.0549949 3.21576627 10.4794499 2.85060897 10.4794499 2.2825865 10.4794499 1.72451097 10.0549949 1.34914497 9.48922872 1.34914497L9.48922872 1.34914497zM6.52847255.111536577L9.68111992.111536577C11.1463761.111536577 11.9447061 1.10570677 11.9447061 2.29253344 11.9447061 3.46941317 11.136208 4.45363643 9.68111992 4.45363643L7.96322433 4.45363643 7.96322433 6.87833325 6.52847255 6.87833325 6.52847255.111536577z"/>
        <g transform="translate(12.512)">
          <mask id="watford-|-stake-logo-footer-b" fill="#fff">
            <use xlink:href="#watford-|-stake-logo-footer-a"/>
          </mask>
          <path fill="#FFF" d="M3.51661493,1.27815525 C2.27349364,1.27815525 1.47542437,2.23175242 1.47542437,3.49998691 C1.47542437,4.75801271 2.27349364,5.72181857 3.51661493,5.72181857 C4.7594755,5.72181857 5.56771291,4.75801271 5.56771291,3.49998691 C5.56771291,2.23175242 4.7594755,1.27815525 3.51661493,1.27815525 M3.51661493,-2.61761506e-05 C5.55780549,-2.61761506e-05 7.04313728,1.46086479 7.04313728,3.49998691 C7.04313728,5.53910904 5.55780549,7 3.51661493,7 C1.48533179,7 0,5.53910904 0,3.49998691 C0,1.46086479 1.48533179,-2.61761506e-05 3.51661493,-2.61761506e-05" mask="url(#watford-|-stake-logo-footer-b)"/>
        </g>
        <polygon fill="#FFF" points="22.002 2.333 22.002 6.878 20.567 6.878 20.567 .111 22.042 .111 25.164 4.494 25.164 .111 26.599 .111 26.599 6.878 25.215 6.878"/>
        <path fill="#FFF" d="M28.2573619,4.8289239 C28.7323969,5.326009 29.4699788,5.74194803 30.3997125,5.74194803 C31.1878744,5.74194803 31.5719175,5.36658203 31.5719175,4.98126909 C31.5719175,4.4739753 30.985815,4.30147447 30.2075606,4.11876493 C29.1062719,3.86511804 27.6915957,3.56095117 27.6915957,2.04927847 C27.6915957,0.923180477 28.6617413,0.0098945849 30.2482332,0.0098945849 C31.3192781,0.0098945849 32.2083393,0.334740613 32.8755262,0.953544812 L32.0769355,2.00870544 C31.5315056,1.50141164 30.8040919,1.26792038 30.1470731,1.26792038 C29.5004832,1.26792038 29.1568519,1.55193161 29.1568519,1.95792371 C29.1568519,2.41443577 29.7226181,2.55631051 30.5006118,2.73902004 C31.6123294,2.99266694 33.0270056,3.3274599 33.0270056,4.8289239 C33.0270056,6.06679406 32.1478518,6.99997382 30.3287962,6.99997382 C29.0353556,6.99997382 28.1058826,6.56387916 27.4694608,5.92465756 L28.2573619,4.8289239 Z"/>
        <g transform="translate(33.675)">
          <mask id="watford-|-stake-logo-footer-d" fill="#fff">
            <use xlink:href="#watford-|-stake-logo-footer-c"/>
          </mask>
          <path fill="#FFF" d="M3.51661493,1.27815525 C2.27349364,1.27815525 1.47542437,2.23175242 1.47542437,3.49998691 C1.47542437,4.75801271 2.27349364,5.72181857 3.51661493,5.72181857 C4.7594755,5.72181857 5.56771291,4.75801271 5.56771291,3.49998691 C5.56771291,2.23175242 4.7594755,1.27815525 3.51661493,1.27815525 M3.51661493,-2.61761504e-05 C5.55780549,-2.61761504e-05 7.04313728,1.46086479 7.04313728,3.49998691 C7.04313728,5.53910904 5.55780549,7 3.51661493,7 C1.48533179,7 0,5.53910904 0,3.49998691 C0,1.46086479 1.48533179,-2.61761504e-05 3.51661493,-2.61761504e-05" mask="url(#watford-|-stake-logo-footer-d)"/>
        </g>
        <path fill="#FFF" d="M44.6701088,1.34914497 L43.1647014,1.34914497 L43.1647014,3.21576627 L44.6701088,3.21576627 C45.2463038,3.21576627 45.6806663,2.85060897 45.6806663,2.2825865 C45.6806663,1.71430227 45.2463038,1.34914497 44.6701088,1.34914497 L44.6701088,1.34914497 Z M44.21541,4.45363643 L43.1647014,4.45363643 L43.1647014,6.87833325 L41.7296889,6.87833325 L41.7296889,0.111536577 L44.8823363,0.111536577 C46.2868443,0.111536577 47.1459225,1.03476941 47.1459225,2.29253344 C47.1459225,3.48983057 46.3981725,4.12905216 45.6707588,4.30155299 L47.1863344,6.87833325 L45.5393551,6.87833325 L44.21541,4.45363643 Z"/>
      </g>
    </g>
  </g>
</svg>
